<svg version="1.1" xmlns="http://www.w3.org/2000/svg" xmlns:xlink="http://www.w3.org/1999/xlink" viewBox="0 0 900 500" width="900" height="500" id="phonescape-result">
  <image xlink:href="./phonescape-result.png" x="300" y="0" width="300" height="500"></image>
  <g fill="#F00">
	<text fill="#000" x="100" y="460">menu</text>
	<path d="M100,470 h250 a4,4 0 1,1 0,1z"></path>

	<text fill="#000" x="760" y="460">icon-1</text>
	<path d="M810,470 h-355 a4,4 0 1,1 0,-1z"></path>

	<text fill="#000" x="10" y="350">app-1, background-color: transparent</text>
	<path d="M10,360 h440 a4,4 0 1,1 0,1z"></path>

	<text fill="#000" x="600" y="250">div#screen, background-image: file.svg</text>
	<path d="M890,260 h-440 a4,4 0 1,1 0,-1z"></path>

	<text fill="#000" x="10" y="100">icon-2</text>
	<path d="M10,110 h360 a4,4 0 1,1 0,1z"></path>
  </g>
</svg>
