<svg version="1.1" xmlns="http://www.w3.org/2000/svg"
    viewBox="0 0 48 48" width="48" height="48" id="back-icon" >
    
    <g>
        <path stroke="#FFF" fill="#FFF" stroke-linejoin="round" d="M12,36 l18,0 a6,6 0 1,0 0,-12 l-12,0 0,6 -12,-9 12,-9 0,6 12,0 a12,12 0 1,1 0,24 l-18,0z"></path>
    </g>
    <defs>
       <pattern id="grid10" x="0" y="0" width="12.5%" height="12.5%"> 
         <path fill="none" stroke="#000" stroke-width="0.5" d="M0,6 6,6 6,0" /> 
       </pattern> 
     </defs> 
     <defs> 
       <pattern id="grid24" x="0" y="0" width="50%" height="50%"> 
         <path fill="none" stroke="#F00" stroke-width="1" d="M0,24 24,24 24,0" /> 
       </pattern> 
     </defs> 
<!--     <rect  x="0" y="0" width="48" height="48" fill="url(#grid24)"></rect> -->
<!--     <rect  x="0" y="0" width="48" height="48" fill="url(#grid10)"></rect>-->
</svg>

