<svg version="1.1" xmlns="http://www.w3.org/2000/svg" xmlns:xlink="http://www.w3.org/1999/xlink" viewBox="0 0 150 150" width="150px" height="150px" font-family="monospace">
    <title>uicuxd: yin-yang-logo</title>
    <desc>Author: Shakiba Moshiri. MIT License. Has been created for uicuxd manually. For more see our github page.</desc>
    <defs> 
           <pattern id="grid10" x="0" y="0" width="6.6%" height="6.6%"> 
             <path fill="none" stroke="#000" stroke-width="1" d="M0,10 10,10 10,0" /> 
           </pattern> 
         </defs> 
         <defs> 
           <pattern id="grid25" x="0" y="0" width="16.66%" height="16.66%"> 
             <path fill="none" stroke="#F00" stroke-width="2" d="M0,25 25,25 25,0" /> 
           </pattern> 
         </defs> 
    <g>
        <path fill="#000" d="M25,75 a50,50 0 1,1 100,0 a25,25 0 1,1 -50,0 a25,25 0 1,0 -50,0z"></path>
        <path fill="#FFF" d="M25,75 a50,50 0 1,0 100,0 a25,25 0 1,1 -50,0 a25,25 0 0,0 -50,0z"></path>
    </g>
    <g>
        <path fill="#000" d="M40,75 a10,10 0 1,1 0,1z"></path>
        <text x="50" y="78" fill="#FFF" text-anchor="middle" font-size="8">uic</text>
    </g>
    <g>
        <path fill="#FFF" d="M90,75 a10,10 0 1,1 0,1z"></path>
        <text x="100" y="78" fill="#000" text-anchor="middle" font-size="8">uxd</text>
    </g>
    
    <g fill="#FFF" font-size="10">
        <path id="text-path" stroke="none" fill="none" d="M12.5,75 a62.5 62.5 0 1,1 0,1z"></path>
        <text text-anchor="middle">
            <textPath xlink:href="#text-path" startOffset="25%" >User Interface Code</textPath>
            <textPath xlink:href="#text-path" startOffset="75%" >User Experience Design</textPath>
        </text>
    </g>
    
<!--         <rect  x="0" y="0" width="150" height="150" fill="url(#grid25)"></rect> -->
<!--         <rect  x="0" y="0" stroke="#000" stroke-width="0" width="150" height="150" fill="url(#grid10)"></rect>-->
</svg>

